<svg xmlns="http://www.w3.org/2000/svg" width="920" height="518" viewBox="0 0 920 518">
<defs>
<marker id="arrow" markerWidth="10" markerHeight="10" refX="8" refY="3" orient="auto" markerUnits="strokeWidth">
<path d="M0,0 L0,6 L9,3 z" fill="#5A6673"/>
</marker>
</defs>
<rect x="0" y="0" width="920" height="518" rx="18" fill="#F8FAFD"/>
<text x="46" y="48" font-family="Arial, Helvetica, sans-serif" font-size="24" font-weight="700" fill="#0B2545">User Path vs Admin Path</text>
<rect x="110" y="90" width="700" height="54" rx="10" fill="#FFFFFF" stroke="#2E74B5" stroke-width="2"/>
<text x="132" y="106" font-family="Arial, Helvetica, sans-serif" font-size="15" font-weight="600" fill="#0B2545">Ordinary user: discover, detail, tools, step guide,</text>
<text x="132" y="124" font-family="Arial, Helvetica, sans-serif" font-size="15" font-weight="600" fill="#0B2545">privacy</text>
<line x1="460.0" y1="152" x2="460.0" y2="172" stroke="#5A6673" stroke-width="2" marker-end="url(#arrow)"/>
<rect x="110" y="182" width="700" height="54" rx="10" fill="#FFFFFF" stroke="#1F4D78" stroke-width="2"/>
<text x="132" y="198" font-family="Arial, Helvetica, sans-serif" font-size="15" font-weight="600" fill="#0B2545">Local-only shell state: preferences and session</text>
<text x="132" y="216" font-family="Arial, Helvetica, sans-serif" font-size="15" font-weight="600" fill="#0B2545">recovery</text>
<line x1="460.0" y1="244" x2="460.0" y2="264" stroke="#5A6673" stroke-width="2" marker-end="url(#arrow)"/>
<rect x="110" y="274" width="700" height="54" rx="10" fill="#FFFFFF" stroke="#2E7D5F" stroke-width="2"/>
<text x="132" y="290" font-family="Arial, Helvetica, sans-serif" font-size="15" font-weight="600" fill="#0B2545">Administrator: readiness, QA, trial, evidence,</text>
<text x="132" y="308" font-family="Arial, Helvetica, sans-serif" font-size="15" font-weight="600" fill="#0B2545">follow-up panels</text>
<line x1="460.0" y1="336" x2="460.0" y2="356" stroke="#5A6673" stroke-width="2" marker-end="url(#arrow)"/>
<rect x="110" y="366" width="700" height="54" rx="10" fill="#FFFFFF" stroke="#8A6D1D" stroke-width="2"/>
<text x="132" y="391" font-family="Arial, Helvetica, sans-serif" font-size="15" font-weight="600" fill="#0B2545">Admin surfaces do not become production user features</text>
</svg>